HIERARCHY
ROOT Hips
{
	OFFSET 0.000000 0.000000 0.000000
	CHANNELS 6 Xposition Yposition Zposition Xrotation Yrotation Zrotation
	JOINT LeftUpLeg_virtual
	{
		OFFSET 0.000000 0.000000 0.000000
		CHANNELS 3 Xrotation Yrotation Zrotation
		JOINT LeftUpLeg
		{
			OFFSET 13.026900 -6.336304 -1.092800
			CHANNELS 3 Xrotation Yrotation Zrotation
			JOINT LeftLeg
			{
				OFFSET 0.524474 -46.096886 9.782700
				CHANNELS 3 Xrotation Yrotation Zrotation
				JOINT LeftFoot
				{
					OFFSET -0.524474 -53.427422 -12.948200
					CHANNELS 3 Xrotation Yrotation Zrotation
					JOINT LeftToeBase
					{
						OFFSET 0.192200 -14.009700 16.364100
						CHANNELS 3 Xrotation Yrotation Zrotation
						JOINT LeftToe_End
						{
							OFFSET -1.784700 -0.561700 9.474800
							CHANNELS 3 Xrotation Yrotation Zrotation
							End Site
							{
								OFFSET 0 0 0
							}
						}
					}
				}
			}
		}
	}
	JOINT RightUpLeg_virtual
	{
		OFFSET 0.000000 0.000000 0.000000
		CHANNELS 3 Xrotation Yrotation Zrotation
		JOINT RightUpLeg
		{
			OFFSET -12.883000 -6.336304 -1.092800
			CHANNELS 3 Xrotation Yrotation Zrotation
			JOINT RightLeg
			{
				OFFSET -0.524587 -46.096825 9.782800
				CHANNELS 3 Xrotation Yrotation Zrotation
				JOINT RightFoot
				{
					OFFSET 0.524587 -53.427383 -12.948300
					CHANNELS 3 Xrotation Yrotation Zrotation
					JOINT RightToeBase
					{
						OFFSET -0.192200 -14.009700 16.364100
						CHANNELS 3 Xrotation Yrotation Zrotation
						JOINT RightToe_End
						{
							OFFSET 1.784700 -0.561700 9.474800
							CHANNELS 3 Xrotation Yrotation Zrotation
							End Site
							{
								OFFSET 0 0 0
							}
						}
					}
				}
			}
		}
	}
	JOINT Spine_virtual
	{
		OFFSET 0.000000 0.000000 0.000000
		CHANNELS 3 Xrotation Yrotation Zrotation
		JOINT Spine
		{
			OFFSET 0.072000 7.257294 -0.789700
			CHANNELS 3 Xrotation Yrotation Zrotation
			JOINT Spine1
			{
				OFFSET 0.000000 12.508769 -0.658067
				CHANNELS 3 Xrotation Yrotation Zrotation
				JOINT Spine1_split
				{
					OFFSET 0.000000 12.508769 -0.658067
					CHANNELS 3 Xrotation Yrotation Zrotation
					JOINT Spine2
					{
						OFFSET 0.000000 12.508769 -0.658067
						CHANNELS 3 Xrotation Yrotation Zrotation
						JOINT Neck_virtual
						{
							OFFSET 0.000000 0.000000 0.000000
							CHANNELS 3 Xrotation Yrotation Zrotation
							JOINT Neck
							{
								OFFSET 0.000000 14.033295 7.520400
								CHANNELS 3 Xrotation Yrotation Zrotation
								JOINT Head
								{
									OFFSET 0.000000 8.198502 5.703100
									CHANNELS 3 Xrotation Yrotation Zrotation
									JOINT HeadTop_End
									{
										OFFSET 0.000000 17.760803 13.332701
										CHANNELS 3 Xrotation Yrotation Zrotation
										End Site
										{
											OFFSET 0 0 0
										}
									}
								}
							}
						}
						JOINT LeftShoulder_virtual
						{
							OFFSET 0.000000 0.000000 0.000000
							CHANNELS 3 Xrotation Yrotation Zrotation
							JOINT LeftShoulder
							{
								OFFSET 6.292450 5.785301 -0.669000
								CHANNELS 3 Xrotation Yrotation Zrotation
								JOINT LeftShoulder_split
								{
									OFFSET 6.292450 5.785301 -0.669000
									CHANNELS 3 Xrotation Yrotation Zrotation
									JOINT LeftArm
									{
										OFFSET 13.907140 -6.093903 1.965100
										CHANNELS 3 Xrotation Yrotation Zrotation
										JOINT LeftForeArm
										{
											OFFSET 34.140198 0.000000 0.000000
											CHANNELS 3 Xrotation Yrotation Zrotation
											JOINT LeftHand
											{
												OFFSET 40.960209 0.000000 0.000000
												CHANNELS 3 Xrotation Yrotation Zrotation
												End Site
												{
													OFFSET 0 0 0
												}
											}
										}
									}
								}
							}
						}
						JOINT RightShoulder_virtual
						{
							OFFSET 0.000000 0.000000 0.000000
							CHANNELS 3 Xrotation Yrotation Zrotation
							JOINT RightShoulder
							{
								OFFSET -6.292450 5.785301 -0.669000
								CHANNELS 3 Xrotation Yrotation Zrotation
								JOINT RightShoulder_split
								{
									OFFSET -6.292450 5.785301 -0.669000
									CHANNELS 3 Xrotation Yrotation Zrotation
									JOINT RightArm
									{
										OFFSET -13.907140 -6.093903 1.965100
										CHANNELS 3 Xrotation Yrotation Zrotation
										JOINT RightForeArm
										{
											OFFSET -34.140198 0.000000 0.000000
											CHANNELS 3 Xrotation Yrotation Zrotation
											JOINT RightHand
											{
												OFFSET -40.960209 0.000000 0.000000
												CHANNELS 3 Xrotation Yrotation Zrotation
												End Site
												{
													OFFSET 0 0 0
												}
											}
										}
									}
								}
							}
						}
					}
				}
			}
		}
	}
}
MOTION
Frames: 9
Frame Time: 0.03333333
9.654925 112.539429 14.880566 0.000000 0.000000 0.000000 -1.335440 9.040565 -5.601348 3.426441 10.928999 10.871056 16.973124 -4.138901 -0.474624 -18.796959 3.378724 0.579254 -2.188702 -0.572555 -0.376428 0.000000 0.000000 0.000000 -0.530233 8.399495 -5.797511 -40.398199 -7.146798 -3.969750 32.864999 -1.174955 -0.960237 7.602234 4.170716 5.794265 0.592690 0.667838 1.165020 0.000000 0.000000 0.000000 -0.626853 7.786251 -5.525730 11.841478 -0.869232 3.810828 0.638055 -1.718746 0.884124 0.886239 -0.978346 0.497799 0.000000 0.000000 0.000000 -3.098317 -1.400816 1.043792 -0.709676 -0.160724 5.335657 -3.787249 0.143034 -4.690820 0.000000 0.000000 0.000000 -3.301964 -1.603355 0.944548 0.859442 -1.190855 -3.572470 -1.289756 -0.218228 0.096495 -0.661884 -10.280673 -74.409727 10.508081 -13.245187 -3.299487 0.000000 0.000000 0.000000 -3.339388 -1.862689 1.012368 2.327797 -0.398540 7.990151 -2.520806 0.881470 -2.031823 1.964451 10.651800 71.402518 11.097058 19.215697 3.171528 0.000000 0.000000 0.000000 
9.854760 111.842720 17.368618 0.000000 0.000000 0.000000 -1.147465 9.771183 -5.945995 5.528434 10.714217 10.797237 16.391491 -4.832381 -0.132487 -19.976485 3.794814 0.218354 -3.022206 -0.684984 -0.356516 0.000000 0.000000 0.000000 -0.075701 8.931576 -6.218172 -41.764841 -6.807708 -3.580999 27.257861 0.304956 -1.283137 8.959815 5.134287 6.920426 1.409904 0.055666 0.662139 0.000000 0.000000 0.000000 -0.330556 8.137043 -5.811059 11.882290 -1.068609 4.023927 0.419397 -1.910255 0.991948 0.817454 -1.016662 0.513481 0.000000 0.000000 0.000000 -3.210503 -1.535515 1.159445 -0.964903 -0.325411 5.158751 -4.117355 -0.003655 -5.383589 0.000000 0.000000 0.000000 -3.477526 -1.703055 0.941251 0.879515 -1.302837 -3.450415 -1.259418 0.037039 0.201797 -1.119530 -10.769826 -74.306420 10.714589 -13.899091 -3.709510 0.000000 0.000000 0.000000 -3.358561 -1.932010 1.104101 2.445880 -1.201346 7.944665 -2.539113 0.642474 -2.242823 1.905784 11.108401 71.315276 10.791906 18.697689 4.079853 0.000000 0.000000 0.000000 
9.942805 111.136169 19.895241 0.000000 0.000000 0.000000 -0.941464 10.520732 -6.202717 7.524517 9.960772 10.924888 15.769703 -5.474412 0.253607 -20.710529 4.456603 -0.166110 -3.460813 -0.800026 -0.490646 0.000000 0.000000 0.000000 0.272470 9.800341 -6.595875 -42.966992 -6.400840 -3.390412 22.548246 1.618452 -1.434412 10.780881 5.960819 7.398313 1.478488 -0.566341 0.306394 0.000000 0.000000 0.000000 -0.058123 8.487396 -6.078439 12.140327 -1.432093 4.066036 0.173134 -2.189947 1.235696 0.619970 -0.904209 0.508875 0.000000 0.000000 0.000000 -3.326612 -1.778156 1.416139 -1.434447 -0.475435 4.796838 -4.554649 -0.277685 -5.989966 0.000000 0.000000 0.000000 -3.689819 -1.897072 1.089718 0.886687 -1.479709 -3.592038 -1.307951 0.398012 0.140586 -1.222328 -11.394662 -73.969221 10.840512 -14.416074 -4.159577 0.000000 0.000000 0.000000 -3.459476 -2.115569 1.317214 2.545780 -1.904005 7.682988 -2.536294 0.589328 -2.355116 2.054215 11.693694 71.514321 10.425088 18.531915 4.720655 0.000000 0.000000 0.000000 
9.917107 110.410431 22.476810 0.000000 0.000000 0.000000 -0.742534 11.234332 -6.415460 9.561021 8.873398 11.296551 14.938479 -5.943310 0.680164 -21.337841 5.339260 -0.544287 -3.264268 -0.922988 -0.716035 0.000000 0.000000 0.000000 0.428187 10.740398 -6.910360 -44.201883 -6.063750 -3.416066 19.081103 2.414921 -1.432064 12.681117 6.347104 6.894331 1.483158 -1.090665 0.173302 0.000000 0.000000 0.000000 0.166993 8.694529 -6.333599 12.554566 -1.849510 3.984473 -0.094657 -2.512278 1.542151 0.483072 -0.612170 0.469849 0.000000 0.000000 0.000000 -3.422267 -2.085036 1.730227 -2.124930 -0.627344 4.380356 -5.083684 -0.649656 -6.462151 0.000000 0.000000 0.000000 -3.909015 -2.153119 1.330396 0.880340 -1.668023 -3.927667 -1.398880 0.683133 0.051720 -1.059519 -12.165647 -73.457045 10.884701 -14.937950 -4.592208 0.000000 0.000000 0.000000 -3.602301 -2.379767 1.579287 2.603606 -2.470830 7.290265 -2.493387 0.737209 -2.309030 2.386914 12.315049 71.950319 9.998751 18.649992 5.137414 0.000000 0.000000 0.000000 
9.793828 109.590424 25.157642 0.000000 0.000000 0.000000 -0.573251 11.946817 -6.603650 11.587500 7.893372 11.939586 13.729969 -6.469194 1.056865 -21.839996 6.259497 -1.603859 -3.267372 -1.082792 -0.720260 0.000000 0.000000 0.000000 0.431450 11.564309 -7.140730 -45.479743 -5.851770 -3.646788 17.222809 2.699719 -1.311041 14.593174 6.299783 5.622767 1.700241 -1.413639 0.215310 0.000000 0.000000 0.000000 0.229844 8.772023 -6.501837 13.075351 -2.207430 3.863688 -0.378627 -2.807255 1.826214 0.387064 -0.044421 0.297757 0.000000 0.000000 0.000000 -3.507258 -2.390869 2.000863 -2.969923 -0.768826 4.026190 -5.629876 -1.056945 -6.786848 0.000000 0.000000 0.000000 -4.105400 -2.404605 1.570645 0.870807 -1.788511 -4.365296 -1.521589 0.628135 -0.027881 -0.765118 -12.997367 -72.881424 10.872281 -15.588262 -4.947990 0.000000 0.000000 0.000000 -3.738421 -2.647844 1.799060 2.635607 -2.882101 6.892694 -2.383150 1.049118 -2.075962 2.740886 12.804347 72.507348 9.526080 18.908851 5.403805 0.000000 0.000000 0.000000 
9.523650 108.665955 27.910788 0.000000 0.000000 0.000000 -0.422509 12.656440 -6.745810 13.630851 7.410087 12.578680 12.252348 -6.849935 1.302925 -22.232580 6.991509 -3.062746 -4.421965 -1.355328 -0.306681 0.000000 0.000000 0.000000 0.310932 12.300435 -7.279335 -46.781373 -5.767665 -4.051025 16.966439 2.597237 -1.111633 16.769252 6.006567 4.090036 1.817709 -1.491364 0.293425 0.000000 0.000000 0.000000 0.142990 8.825038 -6.552126 13.630440 -2.416757 3.761588 -0.673166 -3.028693 2.008827 0.465671 0.584675 0.160280 0.000000 0.000000 0.000000 -3.604464 -2.626913 2.147364 -3.845375 -0.907631 3.798380 -6.140119 -1.425164 -6.937938 0.000000 0.000000 0.000000 -4.283406 -2.587080 1.741015 0.864465 -1.742474 -4.790649 -1.668813 0.199897 -0.024197 -0.513428 -13.729075 -72.378094 10.850636 -16.398243 -5.182130 0.000000 0.000000 0.000000 -3.843230 -2.857910 1.896231 2.653912 -3.114282 6.573195 -2.269839 1.312713 -1.673110 2.914289 13.121935 73.073435 9.018142 19.154473 5.578279 0.000000 0.000000 0.000000 
9.156776 107.714386 30.847481 0.000000 0.000000 0.000000 -0.442647 13.394623 -6.772890 15.328444 7.435276 13.175380 11.445613 -7.386669 1.404916 -21.716505 7.515663 -5.192999 -6.566976 -1.739529 0.488446 0.000000 0.000000 0.000000 0.224033 12.864481 -7.285621 -48.087247 -5.746283 -4.505731 17.907035 2.387798 -0.850167 19.241613 5.678456 2.907921 1.629293 -1.366009 0.308026 0.000000 0.000000 0.000000 -0.121920 8.986671 -6.448279 14.166933 -2.444721 3.735000 -0.984034 -3.147962 2.045714 0.688394 1.121688 0.087117 0.000000 0.000000 0.000000 -3.749951 -2.759249 2.140866 -4.655429 -1.037424 3.718866 -6.546504 -1.689303 -6.963706 0.000000 0.000000 0.000000 -4.454396 -2.668165 1.790901 0.881416 -1.496949 -5.129488 -1.759414 -0.481043 0.213081 -0.427410 -14.138747 -72.076323 10.827713 -17.233879 -5.300708 0.000000 0.000000 0.000000 -3.889923 -2.970048 1.843376 2.692095 -3.183341 6.406661 -2.182794 1.415906 -1.176463 2.739876 13.224770 73.528352 8.494471 19.380771 5.696793 0.000000 0.000000 0.000000 
8.660586 106.826187 34.077385 0.000000 0.000000 0.000000 -0.546982 14.085461 -6.655576 16.399682 7.931539 13.620713 11.778534 -7.652769 1.356320 -20.252740 7.884380 -7.196332 -8.594827 -2.214761 1.230472 0.000000 0.000000 0.000000 0.119420 13.418347 -7.215607 -49.097350 -5.752960 -4.831513 19.630759 2.258228 -0.577504 21.831783 5.478056 2.188786 1.128944 -1.084788 0.215645 0.000000 0.000000 0.000000 -0.531050 9.326996 -6.240101 14.614424 -2.313092 3.844679 -1.311380 -3.183653 1.944051 0.850355 1.366333 0.159725 0.000000 0.000000 0.000000 -3.973967 -2.798788 2.008263 -5.313750 -1.111280 3.750746 -6.783286 -1.726187 -6.911775 0.000000 0.000000 0.000000 -4.628106 -2.647695 1.719906 0.925891 -1.027464 -5.310308 -1.798753 -1.168750 0.515386 -0.505839 -14.098066 -72.065572 10.795318 -17.883496 -5.342118 0.000000 0.000000 0.000000 -3.908349 -2.991915 1.645376 2.763637 -3.129602 6.398768 -2.128262 1.332306 -0.671992 2.203649 13.253378 73.754876 7.980878 19.657433 5.791025 0.000000 0.000000 0.000000 
8.132698 106.146843 37.463989 0.000000 0.000000 0.000000 -0.854002 14.596686 -6.455873 16.637038 8.641867 13.967927 13.532381 -7.430543 1.249558 -17.698012 8.310409 -8.671582 -9.990371 -2.680216 1.526707 0.000000 0.000000 0.000000 -0.011066 13.939104 -7.109653 -49.508046 -5.815628 -4.825903 21.464856 2.098563 -0.335426 24.064271 5.257175 1.657238 0.393974 -0.738733 0.084144 0.000000 0.000000 0.000000 -1.046215 9.745179 -6.081004 14.934244 -2.084147 4.118783 -1.648843 -3.173812 1.742289 0.949923 1.245285 0.266832 0.000000 0.000000 0.000000 -4.268846 -2.782322 1.802665 -5.775016 -1.123653 3.819961 -6.832015 -1.518514 -6.840206 0.000000 0.000000 0.000000 -4.815770 -2.567055 1.560401 1.008387 -0.394148 -5.297870 -1.771665 -1.674473 0.720296 -0.719660 -13.591501 -72.353539 10.723888 -18.197741 -5.355483 0.000000 0.000000 0.000000 -3.927867 -2.960671 1.360809 2.865462 -2.976278 6.530285 -2.127312 1.153900 -0.213731 1.441056 13.426391 73.723184 7.517537 20.028695 5.876027 0.000000 0.000000 0.000000 
